<svg width="109" height="75" viewBox="0 0 109 75" fill="none" xmlns="http://www.w3.org/2000/svg">
<rect x="0.5" y="33.8335" width="7.33333" height="7.33333" fill="#E261AA" stroke="#E261AA"/>
<rect x="0.5" y="33.8335" width="7.33333" height="7.33333" fill="#E261AA" stroke="#E261AA"/>
<rect x="8.83337" y="42.1665" width="7.33333" height="7.33333" fill="#E261AA" stroke="#E261AA"/>
<rect x="8.83337" y="42.1665" width="7.33333" height="7.33333" fill="#E261AA" stroke="#E261AA"/>
<rect x="17.1666" y="50.5" width="7.33333" height="7.33333" fill="#E261AA" stroke="#E261AA"/>
<rect x="17.1666" y="50.5" width="7.33333" height="7.33333" fill="#E261AA" stroke="#E261AA"/>
<rect x="25.5" y="58.8335" width="7.33333" height="7.33333" fill="#E261AA" stroke="#E261AA"/>
<rect x="25.5" y="58.8335" width="7.33333" height="7.33333" fill="#E261AA" stroke="#E261AA"/>
<rect x="8.83337" y="25.5" width="7.33333" height="7.33333" fill="#E261AA" stroke="#E261AA"/>
<rect x="8.83337" y="25.5" width="7.33333" height="7.33333" fill="#E261AA" stroke="#E261AA"/>
<rect x="17.1666" y="17.1665" width="7.33333" height="7.33333" fill="#E261AA" stroke="#E261AA"/>
<rect x="17.1666" y="17.1665" width="7.33333" height="7.33333" fill="#E261AA" stroke="#E261AA"/>
<rect x="25.5" y="8.8335" width="7.33333" height="7.33333" fill="#E261AA" stroke="#E261AA"/>
<rect x="25.5" y="8.8335" width="7.33333" height="7.33333" fill="#E261AA" stroke="#E261AA"/>
<rect x="33.8334" y="0.5" width="7.33333" height="7.33333" fill="#E261AA" stroke="#E261AA"/>
<rect x="33.8334" y="0.5" width="7.33333" height="7.33333" fill="#E261AA" stroke="#E261AA"/>
<rect x="33.8334" y="67.1665" width="7.33333" height="7.33333" fill="#E261AA" stroke="#E261AA"/>
<rect x="33.8334" y="67.1665" width="7.33333" height="7.33333" fill="#E261AA" stroke="#E261AA"/>
<rect x="33.8334" y="58.8335" width="7.33333" height="7.33333" fill="#E261AA" stroke="#E261AA"/>
<rect x="33.8334" y="58.8335" width="7.33333" height="7.33333" fill="#E261AA" stroke="#E261AA"/>
<rect x="33.8334" y="50.5" width="7.33333" height="7.33333" fill="#E261AA" stroke="#E261AA"/>
<rect x="33.8334" y="50.5" width="7.33333" height="7.33333" fill="#E261AA" stroke="#E261AA"/>
<rect x="33.8334" y="42.1665" width="7.33333" height="7.33333" fill="#E261AA" stroke="#E261AA"/>
<rect x="33.8334" y="42.1665" width="7.33333" height="7.33333" fill="#E261AA" stroke="#E261AA"/>
<rect x="33.8334" y="33.8335" width="7.33333" height="7.33333" fill="#E261AA" stroke="#E261AA"/>
<rect x="33.8334" y="33.8335" width="7.33333" height="7.33333" fill="#E261AA" stroke="#E261AA"/>
<rect x="33.8334" y="25.5" width="7.33333" height="7.33333" fill="#E261AA" stroke="#E261AA"/>
<rect x="33.8334" y="25.5" width="7.33333" height="7.33333" fill="#E261AA" stroke="#E261AA"/>
<rect x="42.1666" y="25.5" width="7.33333" height="7.33333" fill="#E261AA" stroke="#E261AA"/>
<rect x="42.1666" y="25.5" width="7.33333" height="7.33333" fill="#E261AA" stroke="#E261AA"/>
<rect x="42.1666" y="33.8335" width="7.33333" height="7.33333" fill="#E261AA" stroke="#E261AA"/>
<rect x="42.1666" y="33.8335" width="7.33333" height="7.33333" fill="#E261AA" stroke="#E261AA"/>
<rect x="42.1666" y="42.1665" width="7.33333" height="7.33333" fill="#E261AA" stroke="#E261AA"/>
<rect x="42.1666" y="42.1665" width="7.33333" height="7.33333" fill="#E261AA" stroke="#E261AA"/>
<rect x="50.5" y="25.5" width="7.33333" height="7.33333" fill="#E261AA" stroke="#E261AA"/>
<rect x="50.5" y="25.5" width="7.33333" height="7.33333" fill="#E261AA" stroke="#E261AA"/>
<rect x="50.5" y="33.8335" width="7.33333" height="7.33333" fill="#E261AA" stroke="#E261AA"/>
<rect x="50.5" y="33.8335" width="7.33333" height="7.33333" fill="#E261AA" stroke="#E261AA"/>
<rect x="50.5" y="42.1665" width="7.33333" height="7.33333" fill="#E261AA" stroke="#E261AA"/>
<rect x="50.5" y="42.1665" width="7.33333" height="7.33333" fill="#E261AA" stroke="#E261AA"/>
<rect x="58.8334" y="25.5" width="7.33333" height="7.33333" fill="#E261AA" stroke="#E261AA"/>
<rect x="58.8334" y="25.5" width="7.33333" height="7.33333" fill="#E261AA" stroke="#E261AA"/>
<rect x="58.8334" y="33.8335" width="7.33333" height="7.33333" fill="#E261AA" stroke="#E261AA"/>
<rect x="58.8334" y="33.8335" width="7.33333" height="7.33333" fill="#E261AA" stroke="#E261AA"/>
<rect x="58.8334" y="42.1665" width="7.33333" height="7.33333" fill="#E261AA" stroke="#E261AA"/>
<rect x="58.8334" y="42.1665" width="7.33333" height="7.33333" fill="#E261AA" stroke="#E261AA"/>
<rect x="67.1666" y="25.5" width="7.33333" height="7.33333" fill="#E261AA" stroke="#E261AA"/>
<rect x="67.1666" y="25.5" width="7.33333" height="7.33333" fill="#E261AA" stroke="#E261AA"/>
<rect x="67.1666" y="33.8335" width="7.33333" height="7.33333" fill="#E261AA" stroke="#E261AA"/>
<rect x="67.1666" y="33.8335" width="7.33333" height="7.33333" fill="#E261AA" stroke="#E261AA"/>
<rect x="67.1666" y="42.1665" width="7.33333" height="7.33333" fill="#E261AA" stroke="#E261AA"/>
<rect x="67.1666" y="42.1665" width="7.33333" height="7.33333" fill="#E261AA" stroke="#E261AA"/>
<rect x="75.5" y="25.5" width="7.33333" height="7.33333" fill="#E261AA" stroke="#E261AA"/>
<rect x="75.5" y="25.5" width="7.33333" height="7.33333" fill="#E261AA" stroke="#E261AA"/>
<rect x="75.5" y="33.8335" width="7.33333" height="7.33333" fill="#E261AA" stroke="#E261AA"/>
<rect x="75.5" y="33.8335" width="7.33333" height="7.33333" fill="#E261AA" stroke="#E261AA"/>
<rect x="75.5" y="42.1665" width="7.33333" height="7.33333" fill="#E261AA" stroke="#E261AA"/>
<rect x="75.5" y="42.1665" width="7.33333" height="7.33333" fill="#E261AA" stroke="#E261AA"/>
<rect x="83.8334" y="25.5" width="7.33333" height="7.33333" fill="#E261AA" stroke="#E261AA"/>
<rect x="83.8334" y="25.5" width="7.33333" height="7.33333" fill="#E261AA" stroke="#E261AA"/>
<rect x="83.8334" y="33.8335" width="7.33333" height="7.33333" fill="#E261AA" stroke="#E261AA"/>
<rect x="83.8334" y="33.8335" width="7.33333" height="7.33333" fill="#E261AA" stroke="#E261AA"/>
<rect x="83.8334" y="42.1665" width="7.33333" height="7.33333" fill="#E261AA" stroke="#E261AA"/>
<rect x="83.8334" y="42.1665" width="7.33333" height="7.33333" fill="#E261AA" stroke="#E261AA"/>
<rect x="92.1666" y="25.5" width="7.33333" height="7.33333" fill="#E261AA" stroke="#E261AA"/>
<rect x="92.1666" y="25.5" width="7.33333" height="7.33333" fill="#E261AA" stroke="#E261AA"/>
<rect x="92.1666" y="33.8335" width="7.33333" height="7.33333" fill="#E261AA" stroke="#E261AA"/>
<rect x="92.1666" y="33.8335" width="7.33333" height="7.33333" fill="#E261AA" stroke="#E261AA"/>
<rect x="92.1666" y="42.1665" width="7.33333" height="7.33333" fill="#E261AA" stroke="#E261AA"/>
<rect x="92.1666" y="42.1665" width="7.33333" height="7.33333" fill="#E261AA" stroke="#E261AA"/>
<rect x="100.5" y="25.5" width="7.33333" height="7.33333" fill="#E261AA" stroke="#E261AA"/>
<rect x="100.5" y="33.8335" width="7.33333" height="7.33333" fill="#E261AA" stroke="#E261AA"/>
<rect x="100.5" y="33.8335" width="7.33333" height="7.33333" fill="#E261AA" stroke="#E261AA"/>
<rect x="100.5" y="42.1665" width="7.33333" height="7.33333" fill="#E261AA" stroke="#E261AA"/>
<rect x="100.5" y="42.1665" width="7.33333" height="7.33333" fill="#E261AA" stroke="#E261AA"/>
<rect x="33.8334" y="17.1665" width="7.33333" height="7.33333" fill="#E261AA" stroke="#E261AA"/>
<rect x="33.8334" y="17.1665" width="7.33333" height="7.33333" fill="#E261AA" stroke="#E261AA"/>
<rect x="33.8334" y="8.8335" width="7.33333" height="7.33333" fill="#E261AA" stroke="#E261AA"/>
<rect x="33.8334" y="8.8335" width="7.33333" height="7.33333" fill="#E261AA" stroke="#E261AA"/>
<rect x="25.5" y="17.1665" width="7.33333" height="7.33333" fill="#E261AA" stroke="#E261AA"/>
<rect x="25.5" y="17.1665" width="7.33333" height="7.33333" fill="#E261AA" stroke="#E261AA"/>
<rect x="17.1666" y="25.5" width="7.33333" height="7.33333" fill="#E261AA" stroke="#E261AA"/>
<rect x="17.1666" y="25.5" width="7.33333" height="7.33333" fill="#E261AA" stroke="#E261AA"/>
<rect x="8.83337" y="33.8335" width="7.33333" height="7.33333" fill="#E261AA" stroke="#E261AA"/>
<rect x="8.83337" y="33.8335" width="7.33333" height="7.33333" fill="#E261AA" stroke="#E261AA"/>
<rect x="17.1666" y="42.1665" width="7.33333" height="7.33333" fill="#E261AA" stroke="#E261AA"/>
<rect x="17.1666" y="42.1665" width="7.33333" height="7.33333" fill="#E261AA" stroke="#E261AA"/>
<rect x="25.5" y="50.5" width="7.33333" height="7.33333" fill="#E261AA" stroke="#E261AA"/>
<rect x="25.5" y="50.5" width="7.33333" height="7.33333" fill="#E261AA" stroke="#E261AA"/>
<rect x="25.5" y="42.1665" width="7.33333" height="7.33333" fill="#E261AA" stroke="#E261AA"/>
<rect x="25.5" y="42.1665" width="7.33333" height="7.33333" fill="#E261AA" stroke="#E261AA"/>
<rect x="25.5" y="33.8335" width="7.33333" height="7.33333" fill="#E261AA" stroke="#E261AA"/>
<rect x="25.5" y="33.8335" width="7.33333" height="7.33333" fill="#E261AA" stroke="#E261AA"/>
<rect x="25.5" y="25.5" width="7.33333" height="7.33333" fill="#E261AA" stroke="#E261AA"/>
<rect x="25.5" y="25.5" width="7.33333" height="7.33333" fill="#E261AA" stroke="#E261AA"/>
<rect x="17.1666" y="33.8335" width="7.33333" height="7.33333" fill="#E261AA" stroke="#E261AA"/>
<rect x="17.1666" y="33.8335" width="7.33333" height="7.33333" fill="#E261AA" stroke="#E261AA"/>
</svg>
