<svg width="175" height="98" viewBox="0 0 175 98" fill="none" xmlns="http://www.w3.org/2000/svg">
<rect width="175" height="98" fill="#FFBE18" fill-opacity="0.5"/>
<path d="M18 86V11.375H31.0232V23.375H43.5695V35.75H68.0109V23.375H80.4196V11H93.5804V23.375H105.989V35.75H130.431V23.375H142.839V11.375H156V86H18Z" fill="#FFBE18"/>
<rect x="18" y="60" width="14" height="14" fill="#FF0000"/>
<rect x="44" y="60" width="12" height="14" fill="#80E5B4"/>
<rect x="56.5" y="60.5" width="12" height="13" fill="#E8C600" stroke="#DEBE00"/>
<rect x="69.5" y="60.5" width="11" height="13" fill="#00BAEA" stroke="#00BFF0"/>
<rect x="81.5" y="60.5" width="13" height="13" fill="#00BAEA" stroke="#00BFF0"/>
<rect x="95.5" y="60.5" width="11" height="13" fill="#00BAEA" stroke="#00BFF0"/>
<rect x="107.5" y="60.5" width="10" height="13" fill="#E8C600" stroke="#DEBE00"/>
<rect x="117" y="60" width="13" height="14" fill="#80E5B4"/>
<rect x="130.5" y="60.5" width="12" height="13" fill="#E8C600" stroke="#DEBE00"/>
<rect x="143" y="60" width="13" height="14" fill="#E8C600"/>
<rect x="143" y="60" width="13" height="14" fill="#E8C600"/>
<rect x="143" y="60" width="13" height="14" fill="#FF0000"/>
<rect x="81.5" y="48.5" width="12" height="11" fill="#00BAEA" stroke="#00BFF0"/>
<rect x="32.5" y="60.5" width="12" height="13" fill="#E8C600" stroke="#DEBE00"/>
</svg>
