<svg width="112" height="112" viewBox="0 0 112 112" fill="none" xmlns="http://www.w3.org/2000/svg">
<rect x="71" y="1" width="10" height="10" fill="white" stroke="white"/>
<rect x="61" y="1" width="10" height="10" fill="#FFBE18" stroke="#FFBE18"/>
<rect x="51" y="1" width="10" height="10" fill="#FFBE18" stroke="#FFBE18"/>
<rect x="41" y="1" width="10" height="10" fill="#FFBE18" stroke="#FFBE18"/>
<rect x="31" y="1" width="10" height="10" fill="#FFBE18" stroke="#FFBE18"/>
<rect x="91" y="11" width="10" height="10" fill="white" stroke="white"/>
<rect x="81" y="11" width="10" height="10" fill="#FFBE18" stroke="#FFBE18"/>
<rect x="71" y="11" width="10" height="10" fill="#FFBE18" stroke="#FFBE18"/>
<rect x="61" y="11" width="10" height="10" fill="white" stroke="white"/>
<rect x="51" y="11" width="10" height="10" fill="#FFBE18" stroke="#FFBE18"/>
<rect x="41" y="11" width="10" height="10" fill="#FFBE18" stroke="#FFBE18"/>
<rect x="31" y="11" width="10" height="10" fill="#FFBE18" stroke="#FFBE18"/>
<rect x="21" y="11" width="10" height="10" fill="#FFBE18" stroke="#FFBE18"/>
<rect x="11" y="11" width="10" height="10" fill="#FFBE18" stroke="#FFBE18"/>
<rect x="91" y="21" width="10" height="10" fill="white" stroke="white"/>
<rect x="81" y="21" width="10" height="10" fill="white" stroke="white"/>
<rect x="71" y="21" width="10" height="10" fill="#FFBE18" stroke="#FFBE18"/>
<rect x="61" y="21" width="10" height="10" fill="#FFBE18" stroke="#FFBE18"/>
<rect x="51" y="21" width="10" height="10" fill="white" stroke="white"/>
<rect x="41" y="21" width="10" height="10" fill="#FFBE18" stroke="#FFBE18"/>
<rect x="31" y="21" width="10" height="10" fill="#FFBE18" stroke="#FFBE18"/>
<rect x="21" y="21" width="10" height="10" fill="#FFBE18" stroke="#FFBE18"/>
<rect x="11" y="21" width="10" height="10" fill="#FFBE18" stroke="#FFBE18"/>
<rect x="1" y="71" width="10" height="10" fill="white" stroke="white"/>
<rect x="11" y="71" width="10" height="10" fill="#FFBE18" stroke="#FFBE18"/>
<rect x="11" y="81" width="10" height="10" fill="#FFBE18" stroke="#FFBE18"/>
<rect x="11" y="91" width="10" height="10" fill="white" stroke="white"/>
<rect x="21" y="71" width="10" height="10" fill="#FFBE18" stroke="#FFBE18"/>
<rect x="21" y="81" width="10" height="10" fill="white" stroke="white"/>
<rect x="21" y="91" width="10" height="10" fill="white" stroke="white"/>
<rect x="31" y="71" width="10" height="10" fill="white" stroke="white"/>
<rect x="31" y="81" width="10" height="10" fill="white" stroke="white"/>
<rect x="31" y="91" width="10" height="10" fill="#FFBE18" stroke="#FFBE18"/>
<rect x="41" y="71" width="10" height="10" fill="white" stroke="white"/>
<rect x="41" y="81" width="10" height="10" fill="#FFBE18" stroke="#FFBE18"/>
<rect x="41" y="91" width="10" height="10" fill="#FFBE18" stroke="#FFBE18"/>
<rect x="51" y="71" width="10" height="10" fill="#FFBE18" stroke="#FFBE18"/>
<rect x="51" y="81" width="10" height="10" fill="#FFBE18" stroke="#FFBE18"/>
<rect x="51" y="91" width="10" height="10" fill="#FFBE18" stroke="#FFBE18"/>
<rect x="61" y="71" width="10" height="10" fill="#FFBE18" stroke="#FFBE18"/>
<rect x="61" y="81" width="10" height="10" fill="#FFBE18" stroke="#FFBE18"/>
<rect x="61" y="91" width="10" height="10" fill="#FFBE18" stroke="#FFBE18"/>
<rect x="71" y="71" width="10" height="10" fill="#FFBE18" stroke="#FFBE18"/>
<rect x="71" y="81" width="10" height="10" fill="#FFBE18" stroke="#FFBE18"/>
<rect x="71" y="91" width="10" height="10" fill="#FFBE18" stroke="#FFBE18"/>
<rect x="81" y="71" width="10" height="10" fill="#FFBE18" stroke="#FFBE18"/>
<rect x="81" y="81" width="10" height="10" fill="#FFBE18" stroke="#FFBE18"/>
<rect x="91" y="71" width="10" height="10" fill="#FFBE18" stroke="#FFBE18"/>
<rect x="1" y="61" width="10" height="10" fill="#FFBE18" stroke="#FFBE18"/>
<rect x="11" y="61" width="10" height="10" fill="white" stroke="white"/>
<rect x="21" y="61" width="10" height="10" fill="#FFBE18" stroke="#FFBE18"/>
<rect x="31" y="61" width="10" height="10" fill="#FFBE18" stroke="#FFBE18"/>
<rect x="41" y="61" width="10" height="10" fill="white" stroke="white"/>
<rect x="51" y="61" width="10" height="10" fill="white" stroke="white"/>
<rect x="61" y="61" width="10" height="10" fill="#FFBE18" stroke="#FFBE18"/>
<rect x="71" y="61" width="10" height="10" fill="#FFBE18" stroke="#FFBE18"/>
<rect x="81" y="61" width="10" height="10" fill="#FFBE18" stroke="#FFBE18"/>
<rect x="91" y="61" width="10" height="10" fill="#FFBE18" stroke="#FFBE18"/>
<rect x="1" y="51" width="10" height="10" fill="#FFBE18" stroke="#FFBE18"/>
<rect x="11" y="51" width="10" height="10" fill="#FFBE18" stroke="#FFBE18"/>
<rect x="21" y="51" width="10" height="10" fill="white" stroke="white"/>
<rect x="31" y="51" width="10" height="10" fill="#FFBE18" stroke="#FFBE18"/>
<rect x="41" y="51" width="10" height="10" fill="#FFBE18" stroke="#FFBE18"/>
<rect x="51" y="51" width="10" height="10" fill="white" stroke="white"/>
<rect x="61" y="51" width="10" height="10" fill="white" stroke="white"/>
<rect x="71" y="51" width="10" height="10" fill="#FFBE18" stroke="#FFBE18"/>
<rect x="81" y="51" width="10" height="10" fill="#FFBE18" stroke="#FFBE18"/>
<rect x="91" y="51" width="10" height="10" fill="#FFBE18" stroke="#FFBE18"/>
<rect x="1" y="41" width="10" height="10" fill="#FFBE18" stroke="#FFBE18"/>
<rect x="11" y="41" width="10" height="10" fill="#FFBE18" stroke="#FFBE18"/>
<rect x="21" y="41" width="10" height="10" fill="#FFBE18" stroke="#FFBE18"/>
<rect x="31" y="41" width="10" height="10" fill="white" stroke="white"/>
<rect x="41" y="41" width="10" height="10" fill="#FFBE18" stroke="#FFBE18"/>
<rect x="51" y="41" width="10" height="10" fill="#FFBE18" stroke="#FFBE18"/>
<rect x="61" y="41" width="10" height="10" fill="white" stroke="white"/>
<rect x="71" y="41" width="10" height="10" fill="white" stroke="white"/>
<rect x="81" y="41" width="10" height="10" fill="#FFBE18" stroke="#FFBE18"/>
<rect x="91" y="41" width="10" height="10" fill="#FFBE18" stroke="#FFBE18"/>
<rect x="1" y="31" width="10" height="10" fill="#FFBE18" stroke="#FFBE18"/>
<rect x="11" y="31" width="10" height="10" fill="#FFBE18" stroke="#FFBE18"/>
<rect x="21" y="31" width="10" height="10" fill="#FFBE18" stroke="#FFBE18"/>
<rect x="31" y="31" width="10" height="10" fill="#FFBE18" stroke="#FFBE18"/>
<rect x="41" y="31" width="10" height="10" fill="white" stroke="white"/>
<rect x="51" y="31" width="10" height="10" fill="#FFBE18" stroke="#FFBE18"/>
<rect x="61" y="31" width="10" height="10" fill="#FFBE18" stroke="#FFBE18"/>
<rect x="71" y="31" width="10" height="10" fill="white" stroke="white"/>
<rect x="81" y="31" width="10" height="10" fill="white" stroke="white"/>
<rect x="91" y="31" width="10" height="10" fill="#FFBE18" stroke="#FFBE18"/>
<rect x="31" y="101" width="10" height="10" fill="#92711E" stroke="#92711E"/>
<rect x="41" y="101" width="10" height="10" fill="#92711E" stroke="#92711E"/>
<rect x="51" y="101" width="10" height="10" fill="#92711E" stroke="#92711E"/>
<rect x="61" y="101" width="10" height="10" fill="#92711E" stroke="#92711E"/>
<rect x="71" y="101" width="10" height="10" fill="#92711E" stroke="#92711E"/>
<rect x="81" y="91" width="10" height="10" fill="#92711E" stroke="#92711E"/>
<rect x="91" y="81" width="10" height="10" fill="#92711E" stroke="#92711E"/>
<rect x="91" y="91" width="10" height="10" fill="#92711E" stroke="#92711E"/>
<rect x="101" y="71" width="10" height="10" fill="#92711E" stroke="#92711E"/>
<rect x="101" y="61" width="10" height="10" fill="#92711E" stroke="#92711E"/>
<rect x="101" y="51" width="10" height="10" fill="#92711E" stroke="#92711E"/>
<rect x="101" y="41" width="10" height="10" fill="#92711E" stroke="#92711E"/>
<rect x="101" y="31" width="10" height="10" fill="#92711E" stroke="#92711E"/>
<rect x="34.4568" y="44.8269" width="7.15" height="7.15" fill="#201E1D"/>
<rect x="40.9136" y="25.4568" width="7.15" height="7.15" fill="#201E1D"/>
<rect x="40.9136" y="31.9136" width="7.15" height="7.15" fill="#201E1D"/>
<rect x="40.9136" y="38.3704" width="7.15" height="7.15" fill="#201E1D"/>
<rect x="40.9136" y="44.8269" width="7.15" height="7.15" fill="#201E1D"/>
<rect x="47.3701" y="25.4568" width="7.15" height="7.15" fill="#201E1D"/>
<rect x="53.8269" y="25.4568" width="7.15" height="7.15" fill="#201E1D"/>
<rect x="53.8269" y="64.197" width="7.15" height="7.15" fill="#201E1D"/>
<rect x="53.8269" y="83.5671" width="7.15" height="7.15" fill="#201E1D"/>
<rect x="60.2834" y="51.2837" width="7.15" height="7.15" fill="#201E1D"/>
<rect x="60.2834" y="57.7402" width="7.15" height="7.15" fill="#201E1D"/>
<rect x="60.2834" y="64.197" width="7.15" height="7.15" fill="#201E1D"/>
<rect x="60.2834" y="77.1104" width="7.15" height="7.15" fill="#201E1D"/>
<rect x="60.2834" y="83.5671" width="7.15" height="7.15" fill="#201E1D"/>
<rect x="66.7402" y="51.2837" width="7.15" height="7.15" fill="#201E1D"/>
<rect x="73.197" y="31.9136" width="7.15" height="7.15" fill="#201E1D"/>
<rect x="73.197" y="38.3704" width="7.15" height="7.15" fill="#201E1D"/>
<rect x="73.197" y="44.8269" width="7.15" height="7.15" fill="#201E1D"/>
<rect x="73.197" y="51.2837" width="7.15" height="7.15" fill="#201E1D"/>
<rect x="28" y="25.4568" width="7.15" height="7.15" fill="#E261AA"/>
<rect x="28" y="31.9133" width="7.15" height="7.15" fill="#E261AA"/>
<rect x="28" y="38.3701" width="7.15" height="7.15" fill="#E261AA"/>
<rect x="34.4568" y="19" width="7.15" height="7.15" fill="#E261AA"/>
<rect x="34.4568" y="25.4568" width="7.15" height="7.15" fill="#E261AA"/>
<rect x="34.4568" y="31.9133" width="7.15" height="7.15" fill="#E261AA"/>
<rect x="34.4568" y="38.3701" width="7.15" height="7.15" fill="#E261AA"/>
<rect x="40.9133" y="19" width="7.15" height="7.15" fill="#E261AA"/>
<rect x="47.3701" y="19" width="7.15" height="7.15" fill="#E261AA"/>
<rect x="47.3701" y="51.2837" width="7.15" height="7.15" fill="#E261AA"/>
<rect x="47.3701" y="57.7402" width="7.15" height="7.15" fill="#E261AA"/>
<rect x="47.3701" y="70.6536" width="7.15" height="7.15" fill="#E261AA"/>
<rect x="47.3701" y="77.1104" width="7.15" height="7.15" fill="#E261AA"/>
<rect x="53.8269" y="19" width="7.15" height="7.15" fill="#E261AA"/>
<rect x="53.8269" y="44.8269" width="7.15" height="7.15" fill="#E261AA"/>
<rect x="53.8269" y="51.2837" width="7.15" height="7.15" fill="#E261AA"/>
<rect x="53.8269" y="57.7402" width="7.15" height="7.15" fill="#E261AA"/>
<rect x="53.8269" y="70.6536" width="7.15" height="7.15" fill="#E261AA"/>
<rect x="53.8269" y="77.1104" width="7.15" height="7.15" fill="#E261AA"/>
<rect x="60.2837" y="19" width="7.15" height="7.15" fill="#E261AA"/>
<rect x="60.2837" y="25.4568" width="7.15" height="7.15" fill="#E261AA"/>
<rect x="60.2837" y="31.9133" width="7.15" height="7.15" fill="#E261AA"/>
<rect x="60.2837" y="38.3701" width="7.15" height="7.15" fill="#E261AA"/>
<rect x="60.2837" y="44.8269" width="7.15" height="7.15" fill="#E261AA"/>
<rect x="66.7405" y="25.4568" width="7.15" height="7.15" fill="#E261AA"/>
<rect x="66.7405" y="31.9133" width="7.15" height="7.15" fill="#E261AA"/>
<rect x="66.7405" y="38.3701" width="7.15" height="7.15" fill="#E261AA"/>
<rect x="66.7405" y="44.8269" width="7.15" height="7.15" fill="#E261AA"/>
</svg>
